<svg xmlns="http://www.w3.org/2000/svg" viewBox="0 0 1200 600">
  <!-- Pig silhouette -->
  <path d="M350 411 C 341 407, 329 396, 329 387 S 324 367, 319 356 S 310 343, 310 336 S 308 322, 306 316 S 293 294, 287 284 S 276 266, 276 256 S 280 240, 285 235 S 293 222, 287 214 S 260 190, 249 180 S 237 170, 237 160 S 240 144, 244 138 S 254 128, 264 126 S 280 126, 290 130 S 308 137, 318 141 S 348 150, 363 150 S 380 147, 380 142 S 379 125, 378 115 S 378 92, 380 83 S 387 62, 397 53 S 418 42, 433 40 S 470 41, 485 44 S 519 53, 529 62 S 546 83, 546 98 S 543 123, 543 133 S 544 153, 549 158 S 575 172, 590 176 S 600 177, 590 184 S 565 202, 565 214 S 570 232, 580 234 S 598 236, 606 234 S 633 214, 643 204 S 660 185, 663 174 S 657 144, 652 134 S 642 104, 642 94 S 647 74, 657 69 S 686 63, 696 67 S 711 84, 711 99 S 706 125, 704 135 S 702 160, 702 170 S 708 192, 718 197 S 744 203, 754 197 S 774 184, 777 174 S 773 154, 768 144 S 754 116, 754 104 S 763 80, 773 72 S 798 61, 813 65 S 843 77, 847 88 S 850 110, 847 115 S 837 125, 832 130 S 825 149, 825 159 S 828 180, 836 190 S 849 207, 857 216 S 864 236, 857 252 S 847 270, 840 280 S 826 305, 824 320 S 823 352, 828 367 S 837 392, 844 402 S 853 417, 853 432 S 849 452, 844 462 S 833 477, 825 480 S 807 481, 800 474 S 785 454, 782 444 S 778 413, 772 404 S 752 384, 741 381 S 712 377, 702 384 S 683 404, 683 419 S 688 444, 695 454 S 719 474, 719 464 S 718 444, 713 454 S 709 469, 704 479 S 694 494, 684 499 S 659 504, 644 499 S 621 489, 611 484 S 595 467, 585 459 S 557 444, 547 444 S 522 448, 517 459 S 517 479, 525 489 S 565 509, 585 524 S 625 544, 625 534 S 622 515, 619 505 S 614 489, 614 479 S 615 459, 610 449 S 596 435, 586 434 S 564 440, 559 450 S 555 474, 560 484 S 580 504, 580 494 S 579 477, 577 468 S 571 453, 566 450 S 556 450, 552 460 S 547 478, 552 489 S 571 515, 577 529 S 583 559, 583 574 S 577 600, 567 610 S 550 612, 521 612 S 490 607, 465 597 S 425 576, 415 566 S 405 546, 405 531 S 409 501, 414 491 S 437 471, 452 469 S 484 471, 489 481 S 497 501, 495 509 S 488 519, 494 524 S 508 534, 512 539 S 495 549, 475 549 S 444 539, 434 534 S 411 517, 411 507 S 418 487, 428 482 S 453 477, 463 484 S 482 502, 477 512 S 461 524, 451 529 S 419 526, 415 514 S 406 482, 400 472 S 385 453, 375 442 S 362 417, 357 407 S 350 411, 350 411" 
    fill="#ff9e9e" stroke="#ffffff" stroke-width="10"/>
  
  <!-- Magnifying glass -->
  <circle cx="423" cy="413" r="75" fill="#1e353f" stroke="#ffffff" stroke-width="10"/>
  <circle cx="423" cy="413" r="50" fill="none" stroke="#ffffff" stroke-width="10"/>
  
  <!-- Spots in magnifying glass -->
  <circle cx="400" cy="390" r="12" fill="#1e353f"/>
  <circle cx="445" cy="400" r="12" fill="#1e353f"/>
  <circle cx="420" cy="435" r="12" fill="#1e353f"/>
  <circle cx="450" cy="440" r="6" fill="#1e353f"/>
  
  <!-- Magnifying glass handle -->
  <path d="M480 470 L 545 535" stroke="#1e353f" stroke-width="30" stroke-linecap="round"/>
  
  <!-- Text -->
  <text x="595" y="350" font-family="Arial, sans-serif" font-size="160" font-weight="bold" fill="#1e353f">PigDisease</text>
  <text x="595" y="500" font-family="Arial, sans-serif" font-size="160" font-weight="bold" fill="#1e353f">Detect</text>
</svg> 